<?xml version="1.0" encoding="utf-8"?><svg version="1.1" id="Layer_1" xmlns="http://www.w3.org/2000/svg" xmlns:xlink="http://www.w3.org/1999/xlink" fill="#333333" x="0px" y="0px" viewBox="0 0 115.28 122.88" style="enable-background:new 0 0 115.28 122.88" xml:space="preserve"><style type="text/css">.st0{fill-rule:evenodd;clip-rule:evenodd;}</style><g><path class="st0" d="M25.38,57h64.88V37.34H69.59c-2.17,0-5.19-1.17-6.62-2.6c-1.43-1.43-2.3-4.01-2.3-6.17V7.64l0,0H8.15 c-0.18,0-0.32,0.09-0.41,0.18C7.59,7.92,7.55,8.05,7.55,8.24v106.45c0,0.14,0.09,0.32,0.18,0.41c0.09,0.14,0.28,0.18,0.41,0.18 c22.78,0,58.09,0,81.51,0c0.18,0,0.17-0.09,0.27-0.18c0.14-0.09,0.33-0.28,0.33-0.41v-11.16H25.38c-4.14,0-7.56-3.4-7.56-7.56 V64.55C17.82,60.4,21.22,57,25.38,57L25.38,57z M29.51,68.52h10.81c2.12,0,3.85,0.29,5.16,0.87c1.31,0.58,2.39,1.41,3.25,2.49 c0.85,1.08,1.47,2.34,1.86,3.77c0.39,1.43,0.58,2.95,0.58,4.56c0,2.51-0.28,4.46-0.86,5.85c-0.57,1.39-1.36,2.55-2.38,3.48 c-1.02,0.94-2.11,1.56-3.27,1.87c-1.59,0.43-3.04,0.64-4.33,0.64H29.51V68.52L29.51,68.52z M36.77,73.85V86.7h1.79 c1.52,0,2.61-0.17,3.25-0.5c0.64-0.34,1.14-0.93,1.51-1.76c0.37-0.84,0.55-2.2,0.55-4.09c0-2.49-0.41-4.19-1.22-5.12 c-0.82-0.92-2.17-1.38-4.06-1.38H36.77L36.77,73.85z M53.01,80.3c0-3.84,1.07-6.83,3.21-8.97c2.14-2.14,5.12-3.21,8.94-3.21 c3.92,0,6.93,1.05,9.05,3.15c2.12,2.1,3.18,5.05,3.18,8.83c0,2.75-0.46,5-1.39,6.76c-0.93,1.76-2.27,3.13-4.01,4.11 c-1.75,0.98-3.93,1.47-6.54,1.47c-2.65,0-4.85-0.42-6.59-1.27c-1.74-0.85-3.15-2.19-4.23-4.01C53.55,85.34,53.01,83.05,53.01,80.3 L53.01,80.3z M60.27,80.32c0,2.37,0.44,4.08,1.33,5.12c0.89,1.04,2.09,1.56,3.61,1.56c1.56,0,2.78-0.51,3.63-1.52 c0.86-1.02,1.29-2.84,1.29-5.47c0-2.21-0.45-3.83-1.34-4.85c-0.9-1.02-2.11-1.53-3.64-1.53c-1.47,0-2.65,0.52-3.54,1.56 C60.72,76.21,60.27,77.93,60.27,80.32L60.27,80.32z M95.94,82.42l6.38,1.92c-0.43,1.79-1.1,3.28-2.03,4.47 c-0.92,1.2-2.06,2.1-3.43,2.71c-1.36,0.61-3.1,0.91-5.21,0.91c-2.56,0-4.65-0.37-6.28-1.11c-1.62-0.74-3.02-2.05-4.2-3.92 c-1.18-1.87-1.77-4.27-1.77-7.18c0-3.89,1.04-6.88,3.11-8.97c2.08-2.09,5.01-3.13,8.8-3.13c2.96,0,5.3,0.6,6.99,1.8 c1.69,1.2,2.96,3.04,3.78,5.53l-6.41,1.42c-0.22-0.71-0.46-1.23-0.71-1.56c-0.41-0.55-0.91-0.98-1.49-1.28 c-0.59-0.3-1.25-0.45-1.98-0.45c-1.65,0-2.92,0.66-3.8,1.98c-0.66,0.98-1,2.52-1,4.62c0,2.61,0.39,4.39,1.19,5.36 c0.79,0.96,1.91,1.45,3.34,1.45c1.39,0,2.44-0.39,3.15-1.17C95.11,85.04,95.62,83.91,95.94,82.42L95.94,82.42z M97.79,57h9.93 c4.16,0,7.56,3.41,7.56,7.56v31.42c0,4.15-3.41,7.56-7.56,7.56h-9.93v13.55c0,1.61-0.65,3.04-1.7,4.1c-1.06,1.06-2.49,1.7-4.1,1.7 c-29.44,0-56.59,0-86.18,0c-1.61,0-3.04-0.64-4.1-1.7c-1.06-1.06-1.7-2.49-1.7-4.1V5.85c0-1.61,0.65-3.04,1.7-4.1 c1.06-1.06,2.53-1.7,4.1-1.7h58.72C64.66,0,64.8,0,64.94,0c0.64,0,1.29,0.28,1.75,0.69h0.09c0.09,0.05,0.14,0.09,0.23,0.18 l29.99,30.36c0.51,0.51,0.88,1.2,0.88,1.98c0,0.23-0.05,0.41-0.09,0.65V57L97.79,57z M67.52,27.97V8.94l21.43,21.7H70.19 c-0.74,0-1.38-0.32-1.89-0.78C67.84,29.4,67.52,28.71,67.52,27.97L67.52,27.97z"/></g></svg>