<svg xmlns="http://www.w3.org/2000/svg" data-name="Layer 1" viewBox="0 0 1024 1280" x="0px" y="0px"><title>icon-01</title><path fill="#48D1CC" d="M68.368 72.64C22.512 95.008 0.112 119.536 0.112 146.192v73.6c0 26.656 22.4 51.184 68.256 73.568 45.856 22.4 107.696 40.528 186.624 53.328 78.912 12.8 164.224 19.2 257.008 19.2 92.784 0 178.096-6.4 257.008-19.2 78.928-12.8 140.768-30.928 186.624-53.328 45.856-22.4 68.256-46.912 68.256-73.584v-73.568c0-26.656-22.4-51.2-68.256-73.584-45.856-22.4-107.696-40.528-186.624-53.312C690.096 6.512 604.8 0.112 512 0.112c-92.784 0-178.096 6.4-257.008 19.2-77.856 13.856-140.768 30.912-186.624 53.312M0.112 565.328v92.768c0 26.672 22.4 51.2 68.256 73.6 45.856 22.4 107.696 40.512 186.624 53.312 78.912 12.8 164.224 19.2 257.008 19.2 92.784 0 178.096-6.4 257.008-19.2 78.928-12.8 140.768-30.928 186.624-53.328 45.856-22.4 68.256-46.912 68.256-73.584v-97.04c-53.312 32-124.768 56.528-216.48 72.512C715.68 650.64 617.584 658.096 512 658.096s-203.68-7.456-295.408-24.528c-91.712-16-163.168-40.512-216.48-72.512m0 217.552v99.184c0 26.656 22.4 51.2 68.256 73.584 45.856 22.4 107.696 40.528 186.624 53.312 78.912 12.8 164.224 19.2 257.008 19.2 92.784 0 178.096-6.4 257.008-19.2 78.928-12.8 140.768-30.912 186.624-53.312 45.856-22.4 68.256-46.928 68.256-73.6v-97.04c-53.312 32-124.768 56.528-216.48 72.528-91.712 16-189.824 24.528-295.408 24.528s-203.68-8.528-295.408-24.528c-91.712-16-163.168-40.528-216.48-72.528m0-439.36V438.4c0 26.656 22.4 51.2 68.256 73.584 45.856 22.4 107.696 40.528 186.624 53.328 78.912 12.8 164.224 19.2 257.008 19.2 92.784 0 178.096-6.4 257.008-19.2 78.928-12.8 140.768-30.928 186.624-53.328 45.856-22.4 68.256-46.928 68.256-73.584v-97.04c-53.312 32-124.768 56.512-216.48 72.512-91.712 16-189.824 24.528-295.408 24.528s-203.68-8.528-295.408-24.528c-91.712-16-163.168-40.528-216.48-72.512"/><text x="0" y="1039" fill="#48D1CC" font-size="5px" font-weight="bold" font-family="'Helvetica Neue', Helvetica, Arial-Unicode, Arial, Sans-serif">Created by Clelia Colombo</text><text x="0" y="1044" fill="#48D1CC" font-size="5px" font-weight="bold" font-family="'Helvetica Neue', Helvetica, Arial-Unicode, Arial, Sans-serif">from the Noun Project</text></svg>